<svg width="409" height="475" xmlns="http://www.w3.org/2000/svg" xmlns:xlink="http://www.w3.org/1999/xlink" overflow="hidden"><defs><clipPath id="clip0"><rect x="58" y="122" width="409" height="475"/></clipPath></defs><g clip-path="url(#clip0)" transform="translate(-58 -122)"><path d="M218.149 383.898C219.249 388.469 217.556 390.247 220.181 394.141 222.551 397.612 224.329 396.765 222.805 403.114 221.704 407.939 220.942 407.601 221.027 413.611 221.112 417.759 221.281 421.992 220.858 426.14 220.096 433.758 216.371 440.107 209.091 434.097 208.245 433.42 196.986 422.246 201.726 419.367 204.435 418.098 204.097 420.806 207.991 420.299 207.821 416.659 204.52 416.32 206.382 409.632 208.499 402.268 205.79 403.876 205.874 398.12 206.044 391.178 209.938 394.564 210.446 389.062 211.038 382.967 210.276 383.221 218.149 383.898ZM229.154 380.681C222.466 380.597 223.821 378.48 209.853 380.004 204.012 380.681 195.123 382.205 195.716 374.925 199.271 374.163 198.764 377.126 202.404 377.126 209.599 368.999 209.514 333.445 207.567 320.493 206.044 309.997 205.028 300.6 206.467 289.765 207.229 283.924 210.953 267.671 214.086 264.877 217.472 268.432 220.181 285.701 220.435 292.474 221.535 320.07 211.8 321.34 220.096 354.778 221.196 359.095 222.635 363.497 224.244 367.729 225.514 371.116 228.646 377.634 229.154 380.681ZM200.795 370.692C197.663 370.777 197.409 368.661 194.277 370.184 189.029 372.978 195.716 380.343 191.399 382.374 188.182 383.813 181.833 379.75 179.886 378.48 171.59 373.063 154.998 361.296 165.495 351.138 171.675 345.212 184.881 348.513 199.864 337.085L199.864 333.445C192.33 329.382 192.669 329.213 192.245 320.07 184.542 314.314 189.113 314.399 189.79 306.611 185.558 303.986 180.394 301.531 178.701 295.352 176.754 288.326 182.764 284.347 186.658 281.553 191.229 278.421 195.208 274.104 200.795 273.427 208.753 272.496 205.705 277.913 203.081 289.003 199.018 306.441 205.282 317.277 205.282 329.805 205.282 340.641 205.874 363.666 200.795 370.692ZM263.353 364.682C258.274 371.539 245.83 381.612 236.603 378.311 230.931 376.195 230.085 371.031 228.223 365.867 213.493 324.641 224.413 330.144 224.413 299.415 224.413 293.574 223.99 288.326 223.313 282.908 222.297 273.85 221.535 273.342 225.26 273.088 231.439 272.665 237.28 275.035 240.666 279.268 243.206 282.315 245.322 285.617 247.523 289.426 253.872 300.177 253.788 303.986 244.222 311.944 240.836 314.737 236.095 316.684 235.757 320.747 235.587 323.456 236.264 326.504 236.095 329.297 236.011 332.683 234.91 334.038 234.91 336.916 253.957 350.122 274.781 349.106 263.353 364.682ZM221.704 236.603C224.244 235.672 228.984 235.249 231.863 234.571 234.825 233.81 238.381 231.863 240.92 231.524 240.92 240.412 239.227 247.777 245.83 252.179 253.026 257.004 260.052 253.703 268.094 253.534 267.417 256.412 265.046 258.867 263.776 262.761 258.105 280.538 279.691 279.353 283.247 281.807 282.908 282.569 277.406 287.479 275.966 289.257 263.184 305.087 280.453 313.552 283.416 317.531 282.315 318.208 272.072 320.24 269.364 321.171 262.591 323.456 261.406 326.081 258.105 327.35 258.951 321.425 275.628 294.844 259.544 270.041 252.772 259.544 241.598 250.825 231.693 243.968 229.408 242.444 222.466 238.381 221.704 236.603ZM160.924 253.618C168.543 253.026 175.653 257.428 183.357 252.179 189.621 247.947 188.267 240.412 188.351 231.609 190.552 231.863 194.446 233.64 197.409 234.402 200.372 235.249 204.351 235.587 207.059 236.518 206.89 237.873 207.229 237.28 206.213 238.212L196.901 244.391C188.267 250.401 174.976 261.745 169.474 270.295 153.982 294.759 169.135 317.446 171.167 327.435 168.204 326.588 168.204 325.319 165.326 323.71 157.623 319.224 147.634 319.054 145.517 317.531 147.295 315.33 151.274 312.621 153.221 310.589 163.802 299.246 154.067 290.103 147.634 283.839L146.025 281.807 149.157 280.792C150.004 280.622 150.766 280.453 151.697 280.284 177.431 275.12 161.94 257.343 160.924 253.618ZM170.913 231.947C169.812 229.916 170.913 230.847 169.305 229.408 158.554 230.931 146.364 253.618 142.216 264.284 130.872 293.32 130.703 339.117 152.967 363.751 160.162 371.708 169.559 378.904 179.717 383.475 181.833 384.491 189.113 387.03 189.79 388.808 187.843 390.162 185.219 389.739 182.68 388.977 179.547 388.046 178.955 387.877 175.146 387.877L172.183 384.575C166.85 381.528 163.294 380.851 156.861 380.512 156.945 380.427 157.199 380.173 157.284 380.258 157.284 380.427 157.538 380.089 157.623 380.089 160.077 378.311 156.945 380.766 158.3 379.581 159.146 378.819 158.723 379.411 159.231 378.396 157.115 375.01 150.766 370.269 146.702 368.999 131.804 364.259 134.259 356.555 115.974 356.047 105.646 355.794 104.461 349.614 100.482 349.191 97.9427 353.339 98.1966 365.021 99.805 370.1 101.498 375.687 106.239 380.766 112.249 381.443 121.984 382.544 122.661 377.888 131.973 377.211 139.422 376.618 145.856 379.327 152.882 380.427L150.342 381.782C143.316 383.729 135.274 375.941 125.793 382.374 122.153 384.829 120.799 388.215 116.651 389.739 110.471 392.109 107 387.792 102.937 388.3 99.4664 400.829 115.296 421.484 132.565 413.103 145.179 407.008 140.184 397.358 156.522 394.056 160.585 393.21 164.733 390.84 168.373 390.501 167.188 392.363 165.58 393.125 163.125 394.056 157.199 396.257 151.189 394.988 147.464 405.061 145.348 410.987 146.11 420.045 138.914 423.177 135.782 424.616 134.343 423.261 130.872 423.177 131.296 429.102 140.607 434.182 146.618 435.79 155.929 438.245 162.956 436.382 168.881 431.303 181.748 420.299 181.748 396.85 189.452 395.58 189.282 401.336 186.489 406.585 186.15 413.018 185.812 420.214 187.166 425.293 190.637 430.118 193.6 434.182 197.24 436.636 202.15 439.43 204.605 440.784 206.721 441.8 209.006 443.239 211.207 444.594 213.408 447.133 215.186 447.811 222.043 442.139 216.033 445.525 227.291 439.007 242.19 430.288 244.645 420.891 240.751 403.029 240.243 400.744 239.058 396.765 238.973 394.649 247.015 395.919 248.285 420.722 259.544 430.541 265.216 435.536 272.326 438.076 281.384 435.621 287.31 434.097 297.214 429.441 298.061 422.923 290.696 422.838 288.326 424.193 285.278 418.098 283.247 413.95 282.739 408.786 281.13 404.13 276.898 392.025 267.247 397.188 260.052 389.739 263.438 390.162 266.57 392.363 270.718 393.21 275.882 394.31 278.083 394.31 281.638 397.273 286.463 401.336 288.664 408.87 295.69 412.511 311.69 420.891 329.382 402.776 326.165 387.877 321.34 387.961 317.785 391.347 311.944 389.316 308.811 388.215 306.357 384.237 303.14 382.12 293.997 375.941 285.871 383.221 279.099 381.189L276.22 380.173C276.051 380.089 275.882 380.004 275.797 379.919 283.585 379.327 287.987 376.195 296.791 376.703 305.425 377.211 321.509 390.416 329.213 369.253 331.244 363.666 331.244 353.762 328.451 348.852 323.033 349.783 326.081 354.1 313.552 355.709 303.902 356.979 303.986 355.286 296.452 360.534 291.542 363.92 288.834 366.544 282.4 368.407 278.337 369.592 271.734 374.84 269.956 377.803 270.549 379.835 268.94 378.226 271.48 379.665 268.094 380.258 264.284 381.02 261.491 382.036 259.713 382.628 256.327 383.729 255.142 385.253 254.211 386.438 254.973 385.337 254.549 386.353L254.126 387.453C247.947 386.776 244.73 390.586 239.143 388.554 240.074 386.776 245.661 384.999 249.301 383.136 253.026 381.274 256.073 379.581 259.544 377.38 280.961 363.751 292.728 345.297 295.013 317.361 297.299 289.003 288.918 252.179 267.417 233.81 265.808 232.37 264.454 231.27 262.845 230.423 258.697 228.138 259.629 229.831 257.851 231.609 257.766 231.524 248.116 222.043 236.772 214.847 232.37 212.054 224.159 207.144 220.011 203.419 218.403 201.98 216.964 199.61 215.186 198.51 213.154 199.271 213.154 200.457 210.107 203.165 200.372 211.631 184.965 217.81 175.653 226.868 174.384 228.053 172.352 230.931 170.913 231.947Z" fill="#445fd2" fill-rule="evenodd" transform="matrix(1.00203 0 0 1 46.6234 8.19687)"/><path d="M98.0273 550.917C96.6729 548.631 94.218 539.828 92.7789 536.526 90.5779 531.447 88.4616 527.045 85.9221 522.558 66.452 487.005 59.9338 476.508 47.7439 436.552 33.099 388.385 39.3633 348.344 32.8451 327.181 31.4906 322.779 30.2209 323.033 33.2683 319.139 38.2628 312.452 40.5484 306.78 43.7652 299.161 47.7439 289.595 51.6379 279.014 55.9552 269.871 60.611 259.798 64.759 253.195 71.4465 243.714 91.2551 215.609 127.486 180.733 156.522 163.464 185.304 146.364 192.923 148.141 213.578 137.814 217.81 135.698 219.419 138.576 227.715 142.3 249.555 152.12 277.744 163.802 296.198 177.854 304.748 184.288 311.097 190.468 318.123 196.986 323.118 201.557 332.345 212.9 337.763 218.995 358.164 241.936 372.131 266.57 384.067 296.537 385.845 301.108 388.215 306.441 390.416 310.843 394.564 319.054 397.95 320.578 396.765 324.641 394.734 331.075 393.21 333.699 392.279 341.064 391.432 347.752 391.686 354.185 391.347 360.957 389.654 391.686 390.247 404.045 382.12 434.266 371.962 472.021 361.973 488.274 344.704 521.289 342.249 526.029 340.217 530.008 337.932 535.341 335.646 540.505 334.884 545.161 332.853 550.494 320.747 551.848 314.568 552.102 303.394 555.827 275.12 565.139 246.677 571.487 215.694 571.487 191.568 571.487 174.892 569.033 153.729 564.123 140.946 561.075 127.402 555.911 112.926 553.118 102.345 551.002 107.17 552.102 98.0273 550.917ZM16.5072 319.732C17.3537 321.933 18.3695 321.001 20.9091 325.149 25.8189 333.191 26.2422 349.021 26.0729 358.672 26.0729 362.82 26.9194 364.767 27.0041 368.237 27.258 374.163 26.8348 381.358 27.6813 387.199 28.1892 390.416 28.2739 392.702 28.4432 396.003L32.8451 420.891C35.3847 431.557 38.6014 440.954 41.6489 451.62 44.3578 460.932 48.2518 471.682 52.2305 479.978L65.3516 506.305C70.1767 515.363 82.1127 536.188 85.4988 544.907 88.8002 553.457 86.8532 554.049 87.6151 562.43 93.964 562.43 97.7734 561.075 105.307 562.006 109.963 562.599 115.804 564.207 120.376 565.477 130.026 568.186 139.507 570.81 149.411 573.688 177.177 581.984 188.436 580.799 217.302 580.715 242.19 580.63 259.967 579.614 283.5 572.588 293.151 569.794 318.377 561.16 327.689 560.821 338.948 560.483 339.202 563.869 344.196 562.938 344.45 559.467 343.011 557.943 343.011 554.388 342.926 543.214 358.926 517.395 364.089 506.982 366.29 502.581 368.237 498.941 370.523 494.285 376.872 481.841 382.798 466.095 387.453 452.636 394.649 431.642 399.051 409.632 400.321 387.453 400.659 382.036 400.151 373.994 401.082 369.084 401.675 365.613 401.252 363.074 401.421 359.688 401.76 353.931 402.945 337.763 404.553 333.53 405.315 331.414 406.162 328.874 407.177 326.588 408.701 323.033 410.648 323.372 411.41 320.747 409.886 318.547 406.923 317.023 404.976 314.991 403.199 313.129 401.59 310.335 400.151 307.542 397.442 302.378 394.903 296.198 392.702 290.442L377.718 255.819C373.147 246.677 364.936 234.064 358.502 225.937 352.746 218.826 354.016 219.927 346.99 212.9 342.757 208.583 338.948 205.366 334.969 199.864 329.89 192.669 314.822 178.362 306.949 173.029 305.256 171.844 304.833 171.336 303.309 170.151 301.193 168.543 298.399 166.934 295.944 165.326 291.288 162.278 285.786 158.638 280.453 155.76 267.671 148.819 228.392 131.804 222.466 127.825 220.519 126.555 216.456 122.915 215.186 122.492 211.461 124.947 216.541 126.47 200.795 132.481 182.002 139.676 167.696 143.316 149.75 155.591 137.899 163.717 132.904 166.003 120.968 176.415 118.429 178.616 117.074 179.801 114.196 181.918L95.0645 200.118C69.0763 227.376 72.547 225.175 52.1458 255.904 40.6331 273.427 36.4851 292.643 28.9511 306.78 21.2477 321.086 18.8775 315.753 16.5072 319.732Z" fill="#445fd2" fill-rule="evenodd" transform="matrix(1.00203 0 0 1 46.6234 8.19687)"/><path d="M209.853 478.878C210.953 479.386 213.239 486.92 216.541 481.587 217.726 479.724 216.541 480.402 218.488 478.878 218.995 488.19 211.969 485.819 210.784 484.126 209.768 482.687 209.345 480.571 209.853 478.878ZM164.141 463.894C166.342 466.603 174.807 474.476 171.421 477.693 166.85 481.925 164.056 464.995 164.141 463.894ZM264.2 463.302 262.507 472.106C260.136 482.518 251.841 478.201 258.951 469.651 260.983 467.281 262.507 466.265 264.2 463.302ZM306.357 431.557C300.262 425.97 313.891 424.785 308.896 431.557L306.357 431.557ZM118.429 427.748C121.476 425.886 123.084 426.732 123.338 430.118 122.492 431.219 122.492 431.557 120.799 432.065 118.767 431.219 117.921 430.457 118.429 427.748ZM123.254 437.06C125.878 443.917 118.598 473.714 152.797 489.883 172.267 499.11 196.986 498.348 208.245 506.39 210.784 508.083 211.123 509.691 213.578 511.808 215.863 511.046 217.133 508.337 218.911 506.982 220.773 505.543 223.228 504.189 225.344 503.342 238.719 497.925 257.174 498.094 274.697 490.137 291.035 482.687 299.076 472.783 302.97 456.022 304.41 449.842 303.478 441.97 304.748 437.144 308.304 435.113 312.282 436.467 314.483 431.811 318.462 423.431 305.51 418.013 298.569 426.647 293.066 433.42 302.463 445.694 284.516 458.392 273.765 466.095 280.538 475.915 270.295 474.222 268.517 466.349 283.247 466.18 282.993 452.551 282.993 450.435 282.739 448.996 282.4 447.133 281.977 444.678 282.231 444.086 280.199 443.578 277.49 447.98 278.675 449.165 274.443 453.144 273.342 454.159 266.57 460.085 265.977 460.339 266.485 456.953 267.924 456.022 268.009 452.043L266.401 442.647C264.708 443.493 265.47 442.393 264.369 444.678 260.221 453.652 258.697 453.313 252.433 461.016 243.121 472.529 247.693 480.994 243.206 482.179 241.259 482.603 244.984 482.179 242.444 482.179 242.359 482.179 242.19 482.095 242.105 482.095 236.434 481.587 248.031 463.556 249.047 461.863 250.909 458.646 252.687 455.175 252.941 450.943 253.28 446.541 252.602 441.546 249.809 439.176 249.216 439.599 249.555 439.176 248.962 440.023 247.269 442.477 248.878 443.155 243.968 449.842 234.402 462.963 234.148 457.122 233.217 473.291 233.132 474.984 232.794 479.386 232.37 480.91 230.931 485.227 223.059 486.581 228.9 472.614 233.132 462.371 236.942 459.831 234.064 445.948 232.878 440.192 232.794 441.631 231.27 440.954 230.339 443.239 229.831 445.948 228.561 448.318 226.106 453.144 223.482 456.614 220.942 462.117 219.842 464.656 219.588 467.873 218.488 470.074 217.641 455.937 228.815 451.535 227.884 443.663 222.635 444.17 217.98 449.927 214.086 451.535 210.446 449.842 206.128 444.594 200.541 443.832 200.457 449.25 204.774 452.466 206.806 456.614 208.245 459.239 211.292 467.704 209.853 471.005 208.837 468.466 208.668 465.757 207.652 462.794 206.721 460.339 205.366 457.799 203.927 455.26 202.658 453.059 201.134 451.112 199.864 448.657 198.764 446.625 197.324 441.97 196.478 440.954 192.161 443.07 193.176 458.392 194.954 463.048 196.647 467.619 203.673 478.709 201.218 483.449 192.584 488.02 196.563 465.164 192.584 459.662 189.029 454.921 184.034 451.197 181.241 445.44 179.717 442.393 180.225 441.631 178.701 439.769 178.616 439.684 178.447 439.599 178.362 439.515 176.839 440.446 177.939 439.091 176.839 441.462 169.135 458.815 191.06 470.921 186.828 482.264 179.971 482.857 185.135 472.106 175.992 461.27 172.352 456.868 168.119 453.059 165.241 447.98 164.564 446.71 163.464 443.239 162.363 442.393 161.347 442.985 162.024 442.223 161.263 443.493 160.501 444.848 160.331 448.318 160.247 449.842 160.162 453.398 161.178 456.191 161.601 459.154 158.977 458.223 155.252 454.413 153.305 452.551 149.157 448.488 150.512 447.218 147.972 443.578 145.009 444.678 143.232 456.445 147.888 461.694 150.85 465.08 158.977 469.312 158.3 474.053 148.057 476.677 154.152 465.841 143.994 458.561 125.878 445.694 134.851 434.097 129.857 426.901 123.846 418.352 109.709 422.923 113.603 431.473 115.72 436.129 118.682 435.113 123.254 437.06Z" fill="#445fd2" fill-rule="evenodd" transform="matrix(1.00203 0 0 1 46.6234 8.19687)"/><path d="M521.543 279.183C522.643 282.4 528.23 276.644 528.315 287.141L528.315 317.023C528.315 323.456 528.399 325.403 521.712 325.488L521.627 326.758 536.78 326.758C537.457 326.758 538.896 326.842 539.489 326.758 540.674 326.673 539.32 326.842 540.42 326.588 541.605 326.335 541.013 326.588 541.605 326.081 536.357 322.525 534.156 332.006 535.087 303.478 537.119 304.494 538.642 306.526 540.335 308.134 542.113 309.997 543.552 311.436 545.415 313.213 549.647 317.446 554.303 320.578 553.626 324.303 552.102 325.319 551.425 325.149 550.24 326.081 552.271 327.689 558.282 326.758 561.329 326.758L571.318 326.588C572.419 326.335 571.995 326.504 572.588 326.081 571.149 324.218 568.609 325.827 563.276 321.509L549.224 307.796C546.938 305.51 544.568 302.717 541.944 300.77 542.875 298.23 544.737 297.129 547.277 294.505 549.393 292.304 551.34 290.611 553.203 288.664 555.573 286.04 559.128 282.315 562.599 280.961 564.631 280.114 565.816 280.792 566.324 279.183 564.885 278.506 550.748 278.506 549.224 279.183 549.986 281.13 555.488 279.691 552.441 284.601 551.679 285.871 548.208 289.595 547.192 290.611L538.642 298.653C537.203 300.092 537.203 300.431 535.087 301.277 535.002 297.976 533.987 283.331 536.357 281.299 538.727 279.183 540.505 281.638 541.605 279.183 539.743 278.506 523.32 278.421 521.543 279.183Z" fill="#040404" fill-rule="evenodd" transform="matrix(1.00203 0 0 1 46.6234 8.19687)"/><path d="M896.976 279.691C901.208 282.061 903.748 278.167 903.748 287.733 903.748 293.574 904.763 321.255 902.647 323.88 901.462 325.319 900.023 325.149 898.499 325.573L897.145 326.081C897.314 326.165 897.483 326.081 897.568 326.335 897.907 326.927 915.26 327.35 917.038 326.081 911.451 322.271 909.758 331.837 910.52 303.563 912.975 304.748 922.371 314.822 925.588 318.123 927.366 319.901 929.567 320.832 929.143 324.303 927.112 325.573 926.604 324.726 925.673 326.081 927.281 327.35 946.412 327.266 948.021 326.081 945.227 323.118 945.651 328.874 931.598 314.737L917.377 300.77C918.308 297.637 934.307 282.485 938.032 280.961 940.148 280.03 941.333 280.792 941.841 279.183 939.81 278.337 926.435 278.591 924.572 279.183 925.503 280.961 926.011 279.606 928.466 281.13 929.313 285.024 922.879 290.273 920.932 292.135 917.885 294.929 913.906 299.838 910.52 301.193 910.435 297.383 909.25 282.908 912.044 281.13 914.753 279.353 916.022 281.469 916.953 279.183 914.753 278.845 897.145 277.829 896.976 279.691Z" fill="#040404" fill-rule="evenodd" transform="matrix(1.00203 0 0 1 46.6234 8.19687)"/><path d="M1024.63 279.183C1025.56 282.146 1031.32 276.982 1031.57 286.633L1031.66 317.615C1031.57 327.435 1029.12 323.287 1024.8 326.081 1024.89 326.165 1025.05 326.165 1025.14 326.25 1025.39 326.927 1042.83 327.35 1044.61 326.081 1039.19 322.525 1037.58 331.414 1038.18 303.648 1040.46 304.24 1046.47 311.012 1048.5 313.129 1050.2 314.822 1051.55 316.176 1053.33 317.869 1054.85 319.393 1057.14 320.747 1057.14 323.88 1056.04 324.811 1056.46 324.388 1055.28 325.065 1053.33 326.25 1054.43 324.557 1053.58 326.673L1075.93 326.081C1074.15 324.134 1072.54 326.165 1066.7 321.594L1052.31 307.711C1050.45 305.849 1046.13 302.378 1045.37 300.008 1046.73 297.891 1060.95 282.993 1065.69 281.046 1067.72 280.199 1068.73 280.792 1069.5 279.183 1067.72 278.591 1054.26 278.337 1052.31 279.183 1053.16 281.892 1062.72 278.421 1050.2 290.696 1048.33 292.474 1040.63 300.516 1038.18 301.108 1038.09 296.283 1038.09 291.373 1038.09 286.633 1038.18 277.236 1043.85 282.061 1044.78 279.183 1043.34 278.591 1025.99 278.591 1024.63 279.183Z" fill="#040404" fill-rule="evenodd" transform="matrix(1.00203 0 0 1 46.6234 8.19687)"/><path d="M295.775 328.112C298.738 328.028 298.315 327.096 300.685 326.081 300.177 329.382 291.119 339.032 291.204 347.074 296.452 346.736 298.23 341.911 301.108 337.847 305.256 332.006 305.256 332.937 312.028 330.229 326.673 324.388 320.917 309.658 317.023 305.933 313.891 307.203 306.103 318.039 303.817 319.224 304.664 309.912 309.235 313.891 312.875 304.917 315.245 299.161 313.467 289.257 308.473 287.987 307.796 289.257 307.626 291.119 307.034 292.643 305.425 296.537 302.717 298.484 301.193 307.118 300.262 312.875 298.145 310.843 297.045 316.092 296.622 317.954 295.606 326.419 295.775 328.112Z" fill="#445fd2" fill-rule="evenodd" transform="matrix(1.00203 0 0 1 46.6234 8.19687)"/><path d="M124.523 319.224C122.238 317.107 120.714 314.822 118.682 312.706 117.582 311.69 113.18 306.78 112.249 306.272 108.609 308.134 107.254 317.023 107.762 320.747 108.44 325.827 113.095 329.043 116.82 330.567 123.677 333.361 123.592 332.006 127.825 338.27 130.534 342.249 133.327 347.582 137.899 347.498 137.899 343.688 133.835 335.562 131.634 332.345 130.28 330.229 129.01 329.636 128.502 326.927 130.618 327.604 130.449 328.112 133.158 328.366 133.243 326.758 132.396 318.377 131.973 316.6 130.534 309.827 128.671 313.806 127.656 307.711 126.47 300.346 125.201 299.33 122.323 293.659 121.137 291.373 121.391 290.273 120.714 288.326 115.296 289.003 111.318 304.156 121.137 311.944 123 313.383 124.1 314.314 124.693 317.023 124.862 317.954 124.862 317.023 124.777 318.123 124.693 319.224 124.777 318.716 124.523 319.224Z" fill="#445fd2" fill-rule="evenodd" transform="matrix(1.00203 0 0 1 46.6234 8.19687)"/><path d="M434.435 375.687C437.229 377.549 439.176 375.517 439.515 380.597 440.107 388.808 437.906 402.945 441.97 408.617 447.726 416.489 465.672 415.473 467.788 403.876 470.074 391.517 465.841 378.311 470.921 376.533 473.629 375.602 476.931 376.449 478.963 378.142 481.587 380.258 480.825 382.459 480.825 386.353 480.825 390.162 481.756 408.955 479.724 410.902 478.878 411.664 478.709 411.495 477.947 411.749L487.936 412.764C487.766 412.595 487.597 412.341 487.512 412.426 487.428 412.595 487.005 412.172 486.581 412.087 482.433 410.31 483.195 410.225 483.195 400.744 483.195 395.241 483.026 389.57 483.28 384.067 485.65 385.337 493.692 396.257 495.724 398.628 497.586 400.829 505.713 412.595 508.591 413.188L508.591 381.02C508.929 375.094 510.876 377.718 513.67 375.687 512.231 375.094 502.665 375.094 501.226 375.687 503.004 376.957 505.12 375.771 506.051 378.65 506.644 380.427 506.39 400.575 506.221 402.776 504.443 401.844 491.83 385.676 489.544 382.882 488.105 381.105 487.174 379.835 485.565 377.888 483.111 374.84 483.534 375.348 479.217 375.348 475.153 375.433 463.894 374.586 461.016 375.687 461.186 375.771 461.355 375.687 461.44 375.856 461.778 376.703 461.101 375.602 463.471 376.533 466.011 377.465 466.011 379.75 466.011 383.729 466.095 387.961 466.095 392.279 466.011 396.511 465.841 404.807 464.487 411.071 455.175 411.325 442.139 411.664 444.763 397.612 444.678 383.729 444.678 381.782 444.509 379.496 445.271 378.057 446.625 375.687 448.064 376.872 449.758 375.687 448.149 375.01 436.129 375.01 434.435 375.687Z" fill="#040404" fill-rule="evenodd" transform="matrix(1.00203 0 0 1 46.6234 8.19687)"/><path d="M946.666 279.183C947.174 280.792 949.46 280.114 951.746 281.299 953.015 281.977 955.386 284.093 955.724 285.278 955.978 285.786 956.825 321.001 955.132 323.626 954.031 325.319 952.761 325.065 951.153 325.488 950.984 325.573 950.899 325.573 950.73 325.573L950.306 326.504C952.507 327.096 955.301 326.758 957.587 326.758 959.026 326.758 960.465 326.758 961.904 326.758L965.628 326.081C959.957 322.356 959.11 330.736 959.11 311.182 959.11 304.325 958.772 296.537 959.195 289.765 961.311 290.95 972.739 305.679 975.279 308.896L987.046 323.372C988.146 324.641 989.585 327.35 991.447 327.35 993.056 316.346 989.5 284.093 993.225 281.13 995.68 279.099 997.034 281.638 998.135 279.183 996.442 278.506 983.49 278.506 981.797 279.183 982.474 280.961 982.644 279.86 985.183 280.368 989.839 281.299 988.485 286.379 988.485 293.066 988.485 299.923 988.569 306.949 988.4 313.891 986.622 313.129 981.205 305.849 979.511 303.648L962.073 282.146C959.872 279.437 960.211 278.76 956.063 278.845 953.693 278.845 948.444 278.421 946.666 279.183Z" fill="#040404" fill-rule="evenodd" transform="matrix(1.00203 0 0 1 46.6234 8.19687)"/><path d="M206.382 376.449C210.7 377.126 217.641 377.803 221.958 377.211 222.551 374.756 218.234 363.412 217.048 354.016 216.033 345.72 214.932 336.577 215.271 327.689 215.863 310.589 219.419 300.6 216.371 281.299 215.863 278.167 215.779 277.236 214.001 275.966 208.414 286.971 212.308 333.191 209.853 353.423 209.345 357.402 209.345 361.804 208.583 365.444 208.075 367.983 205.959 374.078 206.382 376.449Z" fill="#445fd2" fill-rule="evenodd" transform="matrix(1.00203 0 0 1 46.6234 8.19687)"/><path d="M159.654 551.764C161.855 552.187 163.379 552.61 165.749 552.017 166.257 548.801 166.85 539.15 167.527 537.373 168.035 536.272 167.696 536.78 168.289 536.018 168.543 539.743 168.966 543.806 169.389 547.446 169.982 553.203 170.066 553.711 176.246 553.287 178.955 549.901 179.886 542.029 182.087 537.881L182.426 538.642C182.426 538.727 182.51 538.896 182.595 539.066 183.103 542.198 180.563 549.563 181.41 554.049L187.251 554.388C188.267 550.748 190.383 530.6 190.044 526.537 187.674 525.521 183.695 525.267 180.479 525.606 178.786 527.638 178.362 530.6 177.516 533.394 177.177 534.579 176.754 535.934 176.331 537.542 174.892 542.452 175.315 540.759 174.045 541.267 173.199 536.695 173.199 532.124 172.606 528.061 172.098 524.082 171.167 522.897 162.448 523.574 161.347 527.976 158.977 547.192 159.654 551.764Z" fill="#445fd2" fill-rule="evenodd" transform="matrix(1.00203 0 0 1 46.6234 8.19687)"/><path d="M148.226 365.782C148.48 363.92 145.941 362.227 144.671 359.772 138.153 347.498 141.2 353.169 135.02 349.191 127.402 344.281 130.449 338.355 117.836 334.969 106.239 331.837 110.979 333.445 105.9 328.705 104.292 327.181 106.323 328.366 103.868 327.52 101.329 332.176 101.329 339.964 104.376 344.619 107.508 349.445 112.334 351.9 117.413 353.423 126.217 356.047 120.883 351.222 133.073 359.688 136.629 362.227 142.47 366.798 148.226 365.782Z" fill="#445fd2" fill-rule="evenodd" transform="matrix(1.00203 0 0 1 46.6234 8.19687)"/><path d="M281.046 365.275C285.871 367.052 293.066 361.296 295.86 359.349 301.701 355.201 302.124 354.524 310.674 352.915 329.382 349.275 328.62 332.006 325.065 327.266 321.933 327.604 323.88 328.874 319.562 331.837 312.536 336.493 307.203 331.498 299.584 342.757 297.891 345.212 296.791 346.82 294.844 348.175 288.072 353.085 291.542 346.482 284.686 358.841 282.908 362.058 281.384 363.328 281.299 363.497 280.707 364.513 280.961 364.851 281.046 365.275Z" fill="#445fd2" fill-rule="evenodd" transform="matrix(1.00203 0 0 1 46.6234 8.19687)"/><path d="M853.295 279.183C854.48 282.485 859.982 276.305 859.982 287.141L859.982 317.023C860.067 327.858 857.781 323.372 853.464 326.081 854.565 326.758 856.004 326.758 857.274 326.758 858.882 326.758 860.49 326.758 862.099 326.758 868.786 326.758 885.294 327.096 889.865 326.588L893.335 316.346C893.42 315.076 893.505 315.584 893.081 314.906 890.373 316.43 890.034 322.187 884.108 323.71 881.399 324.388 869.971 324.726 867.517 323.456 865.993 320.409 866.331 307.203 866.924 303.14 872.003 302.97 881.569 301.87 883.6 305.764 885.124 308.642 883.177 309.065 885.632 310.081 886.225 308.473 886.309 294.844 885.632 293.151 883.093 294.167 885.717 299.584 879.706 300.431 877.421 300.77 868.871 300.685 866.585 300.346 865.908 278.506 865.146 281.384 873.865 281.384 876.405 281.384 879.368 281.215 881.823 281.384 884.278 281.638 886.14 282.315 887.24 283.839 889.188 286.548 887.579 288.241 889.865 289.257 890.711 287.564 890.034 281.384 889.611 278.929 885.801 278.591 854.988 278.506 853.295 279.183Z" fill="#040404" fill-rule="evenodd" transform="matrix(1.00203 0 0 1 46.6234 8.19687)"/><path d="M756.537 311.266C755.606 313.298 755.776 325.827 756.622 327.435 757.976 326.842 757.723 325.911 758.569 324.641 763.564 324.472 767.119 327.858 773.045 327.435 784.896 326.758 790.398 316.261 785.573 308.219 780.579 299.923 752.135 293.235 763.987 282.908 768.473 278.929 779.817 280.538 782.272 291.204 782.78 293.405 782.102 293.743 783.711 294.505 784.642 292.897 784.642 279.776 783.711 278.167 782.356 278.76 782.441 279.776 781.425 281.046 777.193 281.13 774.145 277.406 767.881 278.252 763.14 278.845 759.077 281.299 757.13 285.109 751.712 295.944 762.548 301.785 769.151 305.51 772.283 307.288 777.277 309.658 779.393 312.367 785.742 320.409 773.976 329.805 763.056 322.187 756.876 317.869 759.416 312.367 756.537 311.266Z" fill="#040404" fill-rule="evenodd" transform="matrix(1.00203 0 0 1 46.6234 8.19687)"/><path d="M572.588 279.183C574.281 283.162 579.445 274.781 579.36 290.357 579.36 296.198 579.106 302.717 579.36 308.473 580.037 321.34 584.101 327.35 597.56 327.52 619.993 327.689 616.353 307.88 616.353 290.865 616.353 288.241 615.845 284.601 617.03 282.569 619.147 278.845 622.11 281.469 622.956 279.183 621.517 278.591 607.803 278.591 606.364 279.183 607.549 282.569 613.136 275.882 613.221 288.241 613.306 293.743 613.221 299.246 613.221 304.748 613.221 309.827 613.221 315.753 610.851 319.054 608.819 321.933 604.671 324.303 599.761 324.472 587.233 324.98 585.963 316.684 585.963 305.341 585.963 301.701 585.201 284.347 587.064 281.892 587.825 280.792 588.418 280.622 589.688 280.368 592.397 279.776 591.973 280.961 592.735 279.183 590.704 278.421 574.535 278.421 572.588 279.183Z" fill="#040404" fill-rule="evenodd" transform="matrix(1.00203 0 0 1 46.6234 8.19687)"/><path d="M715.312 307.965C715.82 305.087 722.253 290.527 723.438 289.595 724.877 292.135 730.634 305.51 731.057 308.05L715.312 307.965ZM700.328 326.758 711.248 326.842C711.502 326.758 712.518 326.758 712.772 326.758 712.772 326.758 712.095 327.689 714.635 326.081 713.449 325.234 712.18 325.657 709.555 323.541 709.386 319.647 712.518 313.552 713.957 310.674L731.988 310.589C733.766 312.79 736.729 320.324 736.221 324.134 734.528 325.065 732.835 324.98 731.904 326.081 733.427 327.181 748.58 327.266 750.358 326.081 750.188 325.996 750.019 325.742 749.935 325.827 749.85 325.996 749.596 325.657 749.511 325.657 749.342 325.573 749.173 325.488 749.088 325.403 747.31 324.641 746.294 324.641 744.686 322.441 740.961 317.192 727.671 279.522 725.047 278.167 722.253 280.622 709.555 315.499 705.492 322.017 704.899 323.033 704.307 323.88 703.206 324.472 700.667 325.996 701.005 324.811 700.328 326.758Z" fill="#040404" fill-rule="evenodd" transform="matrix(1.00203 0 0 1 46.6234 8.19687)"/><path d="M484.296 307.965C484.719 305.425 490.306 292.558 491.999 289.511 493.438 290.188 495.639 296.876 496.232 298.315 497.332 300.939 499.533 305.341 500.041 308.05L484.296 307.965ZM469.143 326.081C470.921 327.52 478.624 326.758 481.333 326.758 481.671 326.758 482.179 326.758 482.349 326.673 484.465 325.996 482.687 326.673 483.618 326.081 482.687 324.98 480.571 324.895 478.963 324.218 477.947 320.578 481.164 313.806 482.941 310.759L501.141 310.589C509.776 327.435 502.919 323.88 500.803 326.081 502.496 327.52 514.263 326.758 517.056 326.758 518.749 326.758 518.326 327.012 519.426 326.081 516.802 323.287 515.617 328.112 510.961 316.769L494.115 278.337C492.592 279.353 491.66 282.569 490.814 284.432 489.967 286.548 489.206 288.41 488.105 290.865 485.819 296.283 476.254 319.224 474.307 322.271 471.936 325.911 470.243 324.218 469.143 326.081Z" fill="#040404" fill-rule="evenodd" transform="matrix(1.00203 0 0 1 46.6234 8.19687)"/><path d="M435.113 279.183C436.298 282.4 441.546 276.644 441.885 287.141L441.885 317.615C441.631 328.874 436.89 323.118 435.028 326.081 436.636 327.266 453.567 327.266 455.091 326.081 451.027 323.202 448.488 327.689 448.572 318.123 448.572 313.298 448.488 308.473 448.657 303.648 468.296 302.378 460.254 307.88 464.233 310.166 464.995 308.558 465.249 295.521 464.233 293.913 462.032 294.675 464.064 298.907 459.746 300.262 457.884 300.854 450.519 300.685 448.488 300.262L448.488 281.638C451.62 281.046 460 281.13 462.794 281.723 469.228 282.993 467.535 286.887 470.074 289.172 471.259 287.733 470.497 280.199 470.243 279.014 467.111 278.506 436.806 278.506 435.113 279.183Z" fill="#040404" fill-rule="evenodd" transform="matrix(1.00203 0 0 1 46.6234 8.19687)"/><path d="M64.1664 295.86 80.1657 301.616C74.24 302.463 62.812 301.785 62.0501 301.955 59.8492 303.224 58.5794 307.372 59.0026 310.081 62.1348 311.859 82.7053 319.732 85.4141 319.562 86.5146 317.277 86.8532 317.192 86.7686 314.145 84.7369 313.467 73.2242 309.827 71.4465 307.88L89.8161 307.796C91.0012 306.018 92.5249 302.378 92.4403 300.008 89.3928 298.315 68.399 290.188 65.7748 290.273 65.0129 291.796 64.2511 293.489 64.1664 295.86Z" fill="#445fd2" fill-rule="evenodd" transform="matrix(1.00203 0 0 1 46.6234 8.19687)"/><path d="M288.834 227.461C289.172 229.662 290.442 231.016 292.474 231.778 296.283 230.508 301.362 222.889 305.764 220.096 305.256 224.329 298.569 232.201 297.722 237.534 298.907 239.566 301.023 242.444 303.732 243.037 306.103 241.513 311.012 236.518 313.891 233.81 325.742 222.889 324.98 224.921 320.409 219.927 317.277 220.942 315.499 223.567 313.552 225.598 311.436 227.799 309.15 229.492 307.118 231.439 307.965 227.207 313.806 220.181 315.076 214.594 315.076 214.594 311.605 208.075 308.219 209.43L288.834 227.461Z" fill="#445fd2" fill-rule="evenodd" transform="matrix(1.00203 0 0 1 46.6234 8.19687)"/><path d="M279.522 537.711C276.813 534.156 272.75 526.96 270.379 522.728 267.247 522.643 264.623 522.643 262.083 523.998 261.576 527.045 265.723 549.647 266.824 551.679 269.025 551.764 270.549 551.679 272.157 550.663 272.665 545.923 269.617 538.727 269.533 533.479 273.342 537.288 275.289 545.415 279.691 549.478 283.162 549.647 284.686 548.885 287.31 548.208 287.394 544.314 283.754 523.066 282.654 520.442 271.311 519.003 279.86 526.537 279.522 537.711Z" fill="#445fd2" fill-rule="evenodd" transform="matrix(1.00203 0 0 1 46.6234 8.19687)"/><path d="M664.266 289.849C667.483 284.855 663.335 280.961 680.012 281.977L680.096 317.531C680.096 323.372 679.588 325.403 673.663 325.488 674.001 326.419 673.07 326.758 677.557 326.758L692.794 326.758 692.71 325.488C688.138 325.319 686.699 324.557 686.699 319.732L686.784 282.061C704.222 280.284 699.651 287.394 702.699 290.019 703.799 288.326 703.122 285.363 703.037 283.416 702.953 280.114 703.714 278.845 700.498 278.845L666.467 278.845C663.42 278.845 663.674 279.099 663.589 286.633 663.589 287.056 663.589 287.818 663.674 288.241 664.182 291.796 662.997 286.125 663.928 289.088L664.266 289.849Z" fill="#040404" fill-rule="evenodd" transform="matrix(1.00203 0 0 1 46.6234 8.19687)"/><path d="M810.969 289.849C814.016 284.94 810.122 280.961 826.714 281.977L826.714 317.531C826.714 323.287 826.291 325.319 820.365 325.488 820.704 326.419 819.773 326.758 824.259 326.758L839.497 326.758 839.412 325.488C834.756 325.319 833.317 324.472 833.317 319.732L833.402 281.977C851.009 280.368 846.184 287.31 849.316 290.019 849.824 289.257 849.57 290.019 849.824 288.664L849.74 283.416C849.57 280.114 850.417 278.845 847.2 278.845L813.17 278.845C810.038 278.845 810.292 279.099 810.292 286.633 810.292 287.056 810.292 287.818 810.292 288.241 810.799 291.288 808.937 287.225 810.969 289.849Z" fill="#040404" fill-rule="evenodd" transform="matrix(1.00203 0 0 1 46.6234 8.19687)"/><path d="M821.889 378.142C833.571 374.078 842.544 383.136 842.459 394.395 842.29 406.162 834.417 413.103 821.72 410.14L821.889 378.142ZM816.641 382.628 816.641 405.569C816.641 413.865 813.762 410.31 811.223 412.511 814.778 414.034 833.571 412.595 837.042 411.325 853.041 405.738 854.734 375.348 827.984 375.348L811.307 375.517C811.477 375.602 811.646 375.517 811.731 375.771 812.323 377.126 816.641 374.248 816.641 382.628Z" fill="#040404" fill-rule="evenodd" transform="matrix(1.00203 0 0 1 46.6234 8.19687)"/><path d="M1107.68 380.512C1107.68 378.057 1107.68 377.718 1110.13 377.465 1124.44 376.025 1123 395.834 1107.68 393.125L1107.68 380.512ZM1097.43 375.687C1102.68 379.158 1102.68 371.623 1102.68 393.887 1102.68 410.564 1104.03 410.14 1098.19 412.172L1097.43 412.511C1099.29 413.188 1110.89 413.188 1112.67 412.511 1110.13 410.564 1106.07 415.219 1107.76 395.157L1111.74 394.903C1115.55 400.659 1120.29 407.262 1124.27 412.764L1134 412.764C1132.82 410.225 1130.53 413.696 1124.27 404.807 1122.32 401.929 1118.09 396.511 1117.33 394.395 1120.88 392.363 1123.34 392.956 1125.45 388.385 1127.4 384.067 1125.28 380.173 1122.74 378.057 1118.17 374.248 1099.29 374.925 1097.43 375.687Z" fill="#040404" fill-rule="evenodd" transform="matrix(1.00203 0 0 1 46.6234 8.19687)"/><path d="M625.75 279.183C626.596 280.876 624.988 279.606 627.951 280.284 629.305 280.538 629.644 280.284 630.829 281.215 633.284 283.247 632.268 297.129 632.268 302.124 632.268 319.986 634.553 325.488 625.75 325.488L625.665 326.758 662.15 326.758C663.081 324.895 665.959 315.499 665.875 313.383 662.658 315.922 662.743 323.287 654.193 323.71 650.891 323.88 646.151 323.964 642.934 323.71 638.532 323.541 639.04 320.832 639.04 316.515 639.04 312.367 638.532 285.871 639.463 283.162 639.971 281.723 641.072 280.876 642.595 280.538 644.881 280.03 646.32 280.876 646.913 279.183 644.966 278.337 627.866 278.421 625.75 279.183Z" fill="#040404" fill-rule="evenodd" transform="matrix(1.00203 0 0 1 46.6234 8.19687)"/><path d="M619.655 393.125 619.57 391.178 619.57 380.512 619.655 377.972C626.088 376.618 631.845 378.396 631.76 385.337 631.591 391.263 626.258 393.972 619.655 393.125ZM609.073 375.687C614.406 379.75 614.322 369.338 614.322 397.019 614.322 411.579 615.253 409.971 610.004 412.257 609.92 412.341 609.75 412.426 609.581 412.426 609.496 412.511 609.327 412.595 609.158 412.68L622.279 411.749C619.824 410.818 619.57 410.479 619.57 406.162 619.57 402.606 619.401 398.628 619.655 395.072 624.395 394.48 623.887 395.58 628.797 402.606 631.252 406.077 633.538 409.463 635.993 412.511L645.643 412.764C644.796 411.833 645.812 412.426 644.204 411.664 640.141 409.717 640.225 410.818 636.162 404.892 634.13 402.014 630.152 397.442 629.22 394.056 632.691 393.041 635.908 391.855 637.262 388.215 638.955 383.559 636.924 379.665 633.961 377.634 629.305 374.332 610.428 375.094 609.073 375.687Z" fill="#040404" fill-rule="evenodd" transform="matrix(1.00203 0 0 1 46.6234 8.19687)"/><path d="M908.658 393.887C908.658 385.083 911.959 376.618 920.847 376.703 929.99 376.787 932.529 385.76 932.699 394.395 932.953 417.759 908.658 417.928 908.658 393.887ZM918.562 374.925C908.234 377.041 901.547 383.983 902.732 396.427 905.102 421.738 941.164 417.844 938.794 391.771 937.947 382.205 929.143 372.809 918.562 374.925Z" fill="#040404" fill-rule="evenodd" transform="matrix(1.00203 0 0 1 46.6234 8.19687)"/><path d="M1164.98 400.744C1162.95 412.426 1152.2 413.442 1147.8 410.056 1142.38 405.992 1140.18 396.088 1142.21 387.369 1146.36 369.338 1169.81 373.57 1164.98 400.744ZM1151.1 375.01C1145.09 376.279 1142.47 377.803 1139.25 381.951 1130.02 393.972 1138.23 416.405 1156.43 413.357 1180.56 409.294 1173.79 370.184 1151.1 375.01Z" fill="#040404" fill-rule="evenodd" transform="matrix(1.00203 0 0 1 46.6234 8.19687)"/><path d="M108.355 231.693C110.217 228.053 112.08 229.408 114.45 231.439 114.704 238.973 109.625 234.148 108.355 231.693ZM121.307 251.841C123.254 250.655 124.523 249.555 124.947 247.185 123.423 244.899 118.09 242.105 117.413 238.889 122.915 234.656 123.846 241.767 128.756 242.952 130.788 242.105 132.565 240.243 132.989 238.127 131.634 236.518 129.603 235.503 127.74 233.81 124.523 231.016 124.777 231.355 120.376 231.016 119.529 224.752 113.603 221.281 109.371 222.974 108.016 223.567 99.9743 231.355 100.059 233.217 100.144 235.079 108.355 241.344 110.133 242.867 111.487 244.137 119.021 251.248 121.307 251.841Z" fill="#445fd2" fill-rule="evenodd" transform="matrix(1.00203 0 0 1 46.6234 8.19687)"/><path d="M233.302 181.494C233.471 178.87 239.905 167.104 241.259 165.411 248.031 166.426 244.476 173.029 242.529 176.415 239.989 180.563 239.82 183.865 233.302 181.494ZM224.667 182.595C226.868 184.457 234.064 188.605 238.127 188.605 245.915 188.436 255.311 170.828 250.063 164.818 248.37 162.786 241.005 158.046 237.534 157.707 236.434 158.892 225.09 179.463 224.667 182.595Z" fill="#445fd2" fill-rule="evenodd" transform="matrix(1.00203 0 0 1 46.6234 8.19687)"/><path d="M224.752 532.378 228.223 532.801C229.154 534.833 229.069 534.748 228.73 537.373 227.291 538.558 227.545 538.642 224.582 538.812L224.752 532.378ZM218.488 555.319 224.752 555.573 224.836 544.314 228.392 544.229C230.508 548.377 228.9 551.679 230.677 555.404L236.942 555.065C237.111 552.356 236.518 549.563 236.349 546.938 236.18 543.468 235.079 542.96 233.64 541.097 234.741 537.457 236.772 536.611 235.164 531.278 233.471 525.521 228.646 526.876 223.143 526.791 219.842 526.791 217.556 525.945 217.218 529.331 216.964 531.701 217.641 535.341 217.726 537.881 217.81 542.875 217.556 550.832 218.488 555.319Z" fill="#445fd2" fill-rule="evenodd" transform="matrix(1.00203 0 0 1 46.6234 8.19687)"/><path d="M1064.08 393.887C1064.08 384.575 1067.21 376.364 1076.61 376.703 1085.58 377.041 1087.87 386.353 1087.95 394.395 1087.95 403.453 1084.99 411.579 1076.02 411.664 1066.53 411.749 1064.08 402.183 1064.08 393.887ZM1057.9 393.294 1057.9 394.903C1057.9 419.452 1094.05 419.706 1094.05 393.887 1094.05 368.322 1057.9 368.83 1057.9 393.294Z" fill="#040404" fill-rule="evenodd" transform="matrix(1.00203 0 0 1 46.6234 8.19687)"/><path d="M357.656 303.14C359.01 302.209 361.973 300.854 364.259 301.362L364.428 304.748C362.735 306.526 361.888 306.611 359.095 306.441 358.418 305.256 357.91 304.664 357.656 303.14ZM339.54 302.801C339.54 305.171 340.895 307.034 341.487 308.558 348.429 308.05 353.508 301.362 353.169 308.981 350.884 310.589 346.312 311.944 344.112 313.806 344.027 316.176 344.873 318.208 345.805 319.732 348.344 319.562 350.122 318.123 352.831 317.023 355.878 315.838 356.809 315.499 357.825 312.536 363.243 312.621 369.846 312.621 370.523 306.949 370.946 303.224 367.391 294.844 366.121 293.066 362.566 293.066 343.35 301.023 339.54 302.801Z" fill="#445fd2" fill-rule="evenodd" transform="matrix(1.00203 0 0 1 46.6234 8.19687)"/><path d="M372.131 327.858C370.184 329.975 349.868 336.239 354.778 328.789 356.132 326.673 366.798 323.456 369.846 323.71 372.047 323.88 373.74 326.081 372.131 327.858ZM365.359 317.277C359.603 318.8 350.206 320.917 348.937 326.419 347.074 334.123 352.238 340.979 360.957 339.032 367.645 337.593 376.11 335.731 377.718 330.229 380.173 321.679 373.909 315.076 365.359 317.277Z" fill="#445fd2" fill-rule="evenodd" transform="matrix(1.00203 0 0 1 46.6234 8.19687)"/><path d="M940.571 375.687 941.249 376.025C941.672 376.195 942.01 376.364 942.434 376.533 949.375 379.073 947.513 381.951 947.513 393.294 947.513 397.442 947.513 401.506 947.513 405.569 947.513 413.865 945.227 410.31 942.434 412.511 943.958 413.103 953.269 413.103 954.793 412.511 954.708 412.426 954.539 412.257 954.454 412.341L953.693 412.087C953.608 412.003 953.439 412.003 953.354 411.918 952.338 411.579 952.761 411.918 951.746 411.41 950.899 410.987 950.306 410.479 949.968 409.124L949.799 383.898C953.185 385.083 971.893 412.426 975.11 413.357 975.956 405.23 974.856 390.755 975.279 381.528 975.533 374.925 977.564 377.718 980.358 375.687 978.834 375.094 969.353 375.094 967.914 375.687 969.692 376.957 970.284 375.602 972.655 377.803L972.993 402.691C971.385 402.098 955.386 381.866 952.507 378.142 950.984 376.195 950.814 375.433 948.021 375.348 945.82 375.264 942.349 375.01 940.571 375.687Z" fill="#040404" fill-rule="evenodd" transform="matrix(1.00203 0 0 1 46.6234 8.19687)"/><path d="M354.27 282.739C349.783 287.818 332.091 292.897 338.524 285.194 340.217 283.162 345.466 280.707 347.498 279.776 357.148 275.543 354.693 282.315 354.27 282.739ZM349.191 272.157C322.017 278.76 331.752 298.569 343.858 295.775 349.614 294.421 358.079 289.426 360.111 285.447 363.074 279.437 357.402 270.21 349.191 272.157Z" fill="#445fd2" fill-rule="evenodd" transform="matrix(1.00203 0 0 1 46.6234 8.19687)"/><path d="M290.865 200.795C293.235 199.441 295.267 200.372 294.759 203.335 294.421 205.197 287.394 214.424 284.601 215.355 281.807 216.287 278.421 214.678 283.754 208.075 284.601 207.059 289.595 201.472 290.865 200.795ZM288.241 194.785C284.516 196.478 277.152 204.266 275.12 208.922 271.734 216.625 281.723 223.99 287.394 221.196 291.796 218.995 298.399 212.223 300.6 207.229 303.817 199.864 294.929 191.653 288.241 194.785Z" fill="#445fd2" fill-rule="evenodd" transform="matrix(1.00203 0 0 1 46.6234 8.19687)"/><path d="M54.77 323.964C56.3784 324.811 63.8278 326.419 66.0288 326.927 70.7693 328.112 73.4782 328.282 76.9489 330.821 77.2029 336.577 73.5628 335.646 66.1134 333.699 62.558 332.768 56.3784 330.398 52.7384 330.652 52.1458 333.022 51.4686 334.376 51.6379 337.001 57.7329 338.524 64.4204 340.556 70.1767 341.572 78.2187 343.011 82.6206 338.524 82.536 330.906 82.3667 321.933 71.6158 321.594 60.1031 318.377 58.2408 317.869 56.8017 317.107 55.5319 318.97 54.8547 320.07 54.6854 322.779 54.77 323.964Z" fill="#445fd2" fill-rule="evenodd" transform="matrix(1.00203 0 0 1 46.6234 8.19687)"/><path d="M175.907 187.674C174.384 188.605 174.722 188.605 172.691 189.198 171.675 187.505 170.744 185.219 170.659 182.341 172.775 183.357 175.146 185.473 175.907 187.674ZM170.913 203.927C173.283 203.843 174.892 202.404 176.246 201.303L174.638 194.954C176.077 193.938 179.124 192.076 180.479 191.653 182.595 191.737 184.627 198.679 190.552 191.653 189.875 189.452 177.262 179.04 173.791 175.992 170.998 173.622 169.22 170.151 163.379 175.061 160.924 177.177 163.379 181.664 165.326 187.674 166.511 191.314 169.22 201.557 170.913 203.927Z" fill="#445fd2" fill-rule="evenodd" transform="matrix(1.00203 0 0 1 46.6234 8.19687)"/><path d="M248.031 542.367C248.2 539.743 248.454 536.695 249.216 534.664 249.64 535.172 249.386 534.664 249.894 535.68 249.978 535.849 250.147 536.272 250.232 536.441L251.756 542.198 248.031 542.367ZM239.82 554.811C247.608 555.488 246.169 552.61 247.269 548.123L254.041 547.531C254.888 549.478 255.481 551.594 256.496 553.033 258.782 553.372 260.898 553.203 262.591 552.271 262.507 549.139 254.465 528.315 252.518 525.183 242.105 523.49 244.053 528.146 242.444 536.272 241.767 539.658 239.397 552.017 239.82 554.811Z" fill="#445fd2" fill-rule="evenodd" transform="matrix(1.00203 0 0 1 46.6234 8.19687)"/><path d="M311.266 542.282C311.266 538.135 309.658 530.77 308.388 527.892 304.494 527.638 302.209 528.738 299.415 529.669L300.092 533.817 301.616 534.156C302.124 534.325 304.071 534.325 304.24 537.373 304.41 540.674 302.209 540.166 299.415 539.828 298.061 537.627 292.22 523.574 296.537 521.543 299.669 520.019 300.177 522.897 301.193 524.844 303.563 525.098 305.341 524.421 307.118 523.744 306.78 517.225 301.193 514.517 294.759 516.717 288.834 518.664 287.31 522.474 288.749 530.008 292.05 546.938 295.775 548.039 311.266 542.282Z" fill="#445fd2" fill-rule="evenodd" transform="matrix(1.00203 0 0 1 46.6234 8.19687)"/><path d="M340.048 271.311C339.794 268.517 337.424 264.538 335.731 263.099 333.699 263.438 333.615 264.03 331.837 264.708L332.345 268.517C330.652 269.871 330.229 270.295 328.197 270.549 323.202 266.316 328.112 263.438 331.329 261.406 335.054 259.036 340.556 254.888 342.842 257.851 344.45 260.644 342.249 261.152 340.979 263.184 342.842 274.019 353.423 263.607 346.82 254.719 341.318 247.269 334.376 250.825 328.028 255.396 321.425 260.221 316.6 263.861 323.202 273.004 329.128 281.13 326.504 278.252 340.048 271.311Z" fill="#445fd2" fill-rule="evenodd" transform="matrix(1.00203 0 0 1 46.6234 8.19687)"/><path d="M1050.79 410.225C1050.96 406.754 1050.79 403.199 1050.87 399.728 1050.87 396.257 1050.87 395.072 1052.91 393.802 1053.07 393.718 1053.16 393.633 1053.33 393.548L1040.8 392.617C1040.97 392.871 1041.14 392.787 1041.22 392.956 1041.22 393.125 1041.48 393.125 1041.56 393.125 1044.44 394.31 1045.46 393.718 1045.71 398.628 1045.88 401.76 1045.96 406.67 1045.54 409.802 1029.88 416.574 1020.82 401.929 1024.21 387.877 1027.26 375.517 1039.28 373.994 1045.37 379.073 1047.66 380.935 1048.08 382.544 1049.1 384.491 1049.52 385.337 1049.26 384.999 1049.69 385.591 1050.28 386.438 1049.77 385.845 1050.53 386.522L1049.77 374.756C1048.16 375.433 1049.18 375.433 1047.74 376.787 1043.93 376.533 1035.38 371.539 1026.32 377.718 1021.33 381.105 1017.18 387.369 1017.52 396.003 1017.94 410.056 1033.77 418.605 1050.79 410.225Z" fill="#040404" fill-rule="evenodd" transform="matrix(1.00203 0 0 1 46.6234 8.19687)"/><path d="M204.774 544.06C201.472 544.229 200.372 544.483 201.388 541.182 201.896 539.489 202.404 537.288 203.335 535.849 204.012 538.219 205.112 541.267 204.774 544.06ZM191.229 554.811 197.663 554.98C198.594 552.695 198.256 551.256 199.779 549.139L206.382 549.224 207.821 555.234 214.424 555.319C214.678 552.525 208.414 528.484 207.144 526.706L199.695 526.537C198.256 528.738 191.314 551.51 191.229 554.811Z" fill="#445fd2" fill-rule="evenodd" transform="matrix(1.00203 0 0 1 46.6234 8.19687)"/><path d="M199.018 178.447 199.102 181.833C195.547 183.018 195.547 182.087 194.108 179.717 191.145 180.055 189.706 181.156 188.013 182.595 189.706 192.161 203.335 188.859 205.705 181.156 207.059 176.754 204.351 172.437 201.134 171.167 196.139 169.22 193.261 171.675 187.843 168.458 188.097 161.686 192.838 167.104 193.261 167.188 195.462 166.596 196.817 165.58 198.34 164.733 197.748 154.914 182.595 159.231 181.241 166.765 179.294 178.616 193.769 175.061 199.018 178.447Z" fill="#445fd2" fill-rule="evenodd" transform="matrix(1.00203 0 0 1 46.6234 8.19687)"/><path d="M128.671 539.404C123.169 540.843 125.285 537.711 124.185 534.41 121.984 533.902 120.376 533.394 118.175 533.648 114.45 544.991 129.264 548.039 134.174 543.298 136.883 540.674 137.306 534.918 134.343 531.701 132.312 529.5 127.486 526.368 129.01 521.543 135.02 521.204 130.618 523.998 133.666 526.114 133.751 526.199 139.084 529.161 139.422 524.59 140.353 510.876 115.55 514.771 122.153 527.384 124.27 531.447 130.788 534.494 128.671 539.404Z" fill="#445fd2" fill-rule="evenodd" transform="matrix(1.00203 0 0 1 46.6234 8.19687)"/><path d="M270.21 190.637C270.464 188.182 272.326 186.066 273.85 185.304 275.374 185.981 275.797 186.404 276.644 187.928 275.882 192.076 273.427 193.6 270.21 190.637ZM259.459 203.335C262.676 201.642 263.523 197.832 266.401 195.293 268.686 196.055 276.305 204.351 282.569 193.007 286.294 186.235 279.522 181.579 273.681 178.024 269.787 175.569 268.856 179.294 266.824 182.002L255.904 196.732C253.195 200.372 256.412 202.234 259.459 203.335Z" fill="#445fd2" fill-rule="evenodd" transform="matrix(1.00203 0 0 1 46.6234 8.19687)"/><path d="M132.989 225.344C122.915 230.254 134.259 236.857 140.777 231.439 149.327 224.329 145.771 212.731 131.55 215.863 129.349 216.371 124.862 217.387 124.439 214.509 123.762 210.446 128.417 212.9 129.857 213.07 131.55 211.631 133.073 210.784 133.666 208.753 127.571 199.102 112.841 212.562 119.952 220.181 124.608 225.26 126.978 222.72 133.581 222.128 136.375 221.958 139.676 222.128 138.83 225.09 137.899 228.561 134.682 225.852 132.989 225.344Z" fill="#445fd2" fill-rule="evenodd" transform="matrix(1.00203 0 0 1 46.6234 8.19687)"/><path d="M1001.52 279.183C1002.71 282.231 1008.04 276.982 1008.21 287.141 1008.21 291.542 1008.8 321.594 1007.36 323.626 1006.68 324.641 1006.18 324.811 1005.08 325.065 1004.4 325.319 1003.98 325.319 1003.38 325.488L1001.69 326.081C1001.86 326.165 1002.03 326.081 1002.11 326.335L1003.47 326.673C1004.06 326.842 1005.5 326.758 1006.09 326.758 1010.24 326.758 1019.72 327.435 1021.58 326.081 1014.98 321.425 1014.73 333.276 1014.73 302.632 1014.73 298.061 1013.88 283.924 1016 281.553 1016.76 280.792 1017.18 280.622 1018.54 280.368 1021.08 279.86 1020.74 280.961 1021.5 279.183 1019.89 278.591 1003.13 278.591 1001.52 279.183Z" fill="#040404" fill-rule="evenodd" transform="matrix(1.00203 0 0 1 46.6234 8.19687)"/><path d="M880.807 380.512C880.807 378.142 880.807 377.803 883.431 377.634 885.209 377.465 886.733 377.718 888.172 378.48 893.589 381.189 896.298 396.765 880.892 393.802L880.807 380.512ZM870.395 375.687C875.389 379.496 875.474 370.1 875.474 393.887 875.474 396.342 876.066 409.04 874.712 410.733 874.204 411.241 873.696 411.41 873.104 411.664L885.801 412.764C885.632 412.595 885.463 412.341 885.378 412.426L883.685 411.749C879.368 410.14 880.722 405.4 880.807 395.919 886.055 395.749 890.373 397.527 894.775 393.972 900.531 389.4 900.954 376.703 886.648 375.433 884.024 375.179 871.918 374.925 870.395 375.687Z" fill="#040404" fill-rule="evenodd" transform="matrix(1.00203 0 0 1 46.6234 8.19687)"/><path d="M575.212 375.687C575.297 375.771 575.551 375.687 575.551 375.856 575.635 376.025 575.889 375.941 575.974 376.025 581.73 377.718 580.376 378.396 580.376 393.887 580.376 397.781 580.461 401.76 580.376 405.569 580.207 413.103 578.26 410.648 575.466 412.68 581.646 412.764 598.322 413.611 603.486 412.511L606.534 403.368C605.179 404.045 606.11 403.199 605.264 404.13 603.655 405.992 602.893 409.124 599.507 410.225 597.052 410.987 588.587 410.902 586.048 410.225 585.032 407.685 585.37 404.892 585.37 401.844 585.37 395.58 584.439 394.395 586.894 393.887 587.825 393.718 597.137 392.617 598.746 396.427 600.185 399.813 598.322 398.797 600.354 399.897L599.677 386.861C598.407 389.824 599.084 391.432 594.936 391.855 592.651 392.025 587.656 391.94 585.455 391.601L585.709 378.226C586.302 376.364 595.359 377.211 597.476 377.465 603.232 378.057 600.862 380.935 603.486 383.475 604.163 382.29 604.333 376.449 603.063 375.687 602.216 375.179 577.075 375.01 575.212 375.687Z" fill="#040404" fill-rule="evenodd" transform="matrix(1.00203 0 0 1 46.6234 8.19687)"/><path d="M81.0122 262.083C83.2978 264.454 85.4988 266.316 87.8691 268.348 89.3928 269.702 93.7101 273.173 94.9799 274.781 89.6468 274.527 81.3508 269.279 75.9331 269.787 74.9173 271.48 73.5628 273.088 73.5628 275.205 76.187 276.559 99.1278 282.908 102.091 282.315 103.445 280.453 104.461 278.929 104.969 276.474 103.868 274.019 101.837 272.665 99.9743 271.141 96.165 267.84 87.3611 257.258 83.2132 256.581 82.282 258.359 80.9276 259.713 81.0122 262.083Z" fill="#445fd2" fill-rule="evenodd" transform="matrix(1.00203 0 0 1 46.6234 8.19687)"/><path d="M306.018 246.592C306.187 249.216 308.304 250.994 310.251 253.364 312.113 255.65 313.467 258.528 316.007 259.29 317.869 258.613 318.547 258.02 319.224 256.242 318.293 253.11 315.753 253.026 314.483 249.301 315.33 247.439 317.446 245.83 319.732 245.322 321.679 246.846 322.694 249.724 325.065 250.825 326.842 250.147 326.758 249.809 328.366 248.539 327.689 244.476 325.234 245.068 324.388 241.259 325.319 239.905 326.588 238.973 328.197 238.381 330.144 239.651 330.99 241.936 332.514 243.46 334.8 245.661 337.763 243.545 337.255 240.92 337.085 239.989 330.144 231.693 328.874 230.085 325.149 230.085 320.409 235.249 316.853 237.958 313.383 240.751 308.981 243.375 306.018 246.592Z" fill="#445fd2" fill-rule="evenodd" transform="matrix(1.00203 0 0 1 46.6234 8.19687)"/><path d="M87.0225 251.925C88.8002 254.38 95.4878 258.189 98.112 260.136 111.656 269.871 109.455 270.041 114.788 262.083 116.312 259.798 122.746 253.534 114.873 252.602 112.841 254.549 111.402 257.851 109.54 259.29 107.254 258.528 105.307 257.174 104.122 255.735 105.138 252.687 107.424 251.841 107.932 248.793 107 247.523 106.154 246.677 104.207 246.253L99.6357 252.094C97.3501 251.756 96.3343 250.994 95.2338 249.301L99.6357 241.936C98.3659 240.582 97.6041 239.82 95.6571 239.312 93.2868 241.259 87.5304 249.301 87.0225 251.925Z" fill="#445fd2" fill-rule="evenodd" transform="matrix(1.00203 0 0 1 46.6234 8.19687)"/><path d="M1003.98 391.432C1002.54 392.617 994.749 392.109 993.141 391.855 992.125 389.4 992.463 380.258 992.971 377.38 995.087 376.703 1005.16 376.364 1007.45 377.718 1008.29 378.311 1007.62 377.972 1008.29 378.819 1010.83 380.004 1009.14 382.544 1010.92 383.475 1011.17 383.052 1012.78 376.195 1009.73 375.517 1009.14 375.348 1008.97 375.348 1008.29 375.348 1003.89 375.094 984.337 375.094 982.728 375.687 987.384 378.819 987.977 370.692 987.977 393.887 987.977 396.342 988.485 408.87 987.13 410.564 986.284 411.579 984.76 411.664 983.49 412.172L982.728 412.511C985.099 413.357 1006.52 412.934 1010.75 412.764 1011.68 411.495 1014.39 404.469 1013.63 403.199 1011 405.569 1011 409.378 1006.18 410.479 1002.54 411.325 995.511 411.325 993.141 409.548L993.056 394.141C995.426 393.633 1004.23 392.702 1006.09 395.919 1006.85 397.273 1006.77 398.543 1007.95 399.897L1007.36 387.538C1007.36 387.623 1007.19 387.792 1007.19 387.961 1006.09 390.162 1006.52 390.924 1003.98 391.432Z" fill="#040404" fill-rule="evenodd" transform="matrix(1.00203 0 0 1 46.6234 8.19687)"/><path d="M649.283 400.998C648.267 402.86 648.775 410.648 649.029 413.357 650.637 412.764 649.706 412.849 650.891 411.41 655.209 411.325 656.986 413.78 662.15 413.526 666.129 413.357 669.007 411.749 671.039 409.209 673.24 406.416 673.832 401.844 671.885 398.458 667.991 391.855 645.474 386.522 655.039 378.226 658.002 375.687 662.827 377.041 665.113 378.565 670.785 382.459 667.568 385.591 670.7 387.03L670.7 374.756C668.245 375.602 670.107 377.634 666.213 376.449 663.166 375.517 657.156 372.131 651.399 377.803 649.114 380.089 647.505 384.321 649.452 388.385 652.076 393.887 661.134 396.511 665.79 400.321 673.493 406.839 662.997 415.473 654.701 409.802 649.791 406.331 651.23 402.522 649.283 400.998Z" fill="#040404" fill-rule="evenodd" transform="matrix(1.00203 0 0 1 46.6234 8.19687)"/><path d="M139.253 547.7C143.316 548.631 150.173 550.24 154.829 550.07 157.369 541.775 151.274 545.923 146.956 543.214 146.787 540.589 147.126 538.219 148.311 536.611 150.85 536.526 152.374 537.796 156.099 537.542L156.607 532.717 149.157 531.532C148.734 528.992 149.242 528.146 149.581 526.029L158.638 527.045 159.316 522.389C157.115 521.373 146.448 519.68 143.74 519.765 142.3 527.468 138.999 540.166 139.253 547.7Z" fill="#445fd2" fill-rule="evenodd" transform="matrix(1.00203 0 0 1 46.6234 8.19687)"/><path d="M769.151 400.998 769.151 413.357C769.32 413.188 769.405 412.849 769.489 413.018 769.912 413.696 769.997 412.426 770.166 412.341 771.436 411.241 769.659 411.918 771.605 411.495 773.722 410.987 776.769 413.526 781.594 413.526 788.282 413.526 794.377 408.617 793.023 401.336 791.922 395.411 784.727 392.702 780.071 389.993 777.785 388.639 774.399 386.692 773.552 384.829 771.775 381.274 774.484 378.226 776.685 377.295 779.817 376.025 783.541 377.295 785.827 378.988 788.621 381.189 789.128 383.644 789.89 387.199 790.906 386.099 790.229 387.453 790.737 385.845L790.906 374.84C788.875 375.856 789.128 377.549 785.912 376.279 780.748 374.417 775.076 373.063 770.674 378.65 764.918 385.845 771.521 391.94 777.87 395.495 780.24 396.85 784.727 399.22 786.335 400.829 795.139 409.463 775.838 418.521 770.674 403.876 770.166 402.606 770.674 403.707 770.166 402.691 769.405 400.998 769.997 402.014 769.151 400.998Z" fill="#040404" fill-rule="evenodd" transform="matrix(1.00203 0 0 1 46.6234 8.19687)"/><path d="M743.162 383.813C744.855 385.591 748.665 395.411 749.427 398.543L736.898 398.289 743.162 383.813ZM725.301 412.68 736.475 412.764 732.835 410.648C732.242 407.601 734.782 403.199 735.967 400.659 740.115 400.575 747.056 399.643 750.358 401.082 751.966 402.945 753.744 408.109 753.405 410.987 752.813 411.241 752.559 411.241 751.882 411.664L750.781 412.426C750.696 412.426 750.527 412.595 750.442 412.68L764.156 412.764C763.648 412.172 763.902 412.341 763.14 411.833 759.839 409.717 760.177 410.564 757.807 404.892L745.363 375.517C745.279 375.433 745.194 375.264 745.109 375.264 745.025 375.179 744.94 375.01 744.771 374.925 742.993 376.279 737.237 391.432 735.882 394.564 734.528 397.696 730.464 409.124 727.84 410.987 727.332 411.325 727.163 411.241 726.824 411.579 726.317 411.918 726.655 411.579 726.063 412.087L725.301 412.68Z" fill="#040404" fill-rule="evenodd" transform="matrix(1.00203 0 0 1 46.6234 8.19687)"/><path d="M534.24 375.687C536.018 378.65 536.357 373.232 540.674 383.475L551.679 408.87C552.441 410.818 552.695 412.68 554.388 413.357 556.335 411.071 566.578 382.459 568.948 379.073 570.81 376.279 571.995 377.38 573.011 375.687 571.318 375.01 563.7 375.01 562.006 375.687 564.377 379.919 568.948 372.216 561.922 389.654 560.483 393.041 557.435 402.352 555.404 404.469L545.584 381.951C543.468 376.279 546.092 377.972 548.885 375.687 547.277 375.01 535.764 375.094 534.24 375.687Z" fill="#040404" fill-rule="evenodd" transform="matrix(1.00203 0 0 1 46.6234 8.19687)"/><path d="M696.604 384.237C698.127 383.306 697.281 383.729 698.381 381.105 700.244 376.703 704.392 377.38 709.301 377.718 709.386 378.142 710.74 408.786 708.455 410.902 707.608 411.664 707.27 411.495 705.915 412.087L719.798 412.764C718.952 411.241 715.227 413.188 714.804 407.77L714.804 377.718C728.094 376.957 724.37 380.173 727.163 384.152 728.094 382.882 727.502 376.957 727.332 375.602L697.45 375.348 696.604 384.237Z" fill="#040404" fill-rule="evenodd" transform="matrix(1.00203 0 0 1 46.6234 8.19687)"/><path d="M140.269 192.753C142.216 199.441 145.687 194.785 147.972 193.854 152.205 196.309 158.469 208.414 162.363 210.869 164.649 210.615 166.172 209.091 167.612 207.652 167.273 204.351 156.183 193.007 154.321 189.029 155.845 186.489 161.432 184.881 155.422 181.156 152.797 182.002 141.539 190.637 140.269 192.753Z" fill="#445fd2" fill-rule="evenodd" transform="matrix(1.00203 0 0 1 46.6234 8.19687)"/><path d="M213.07 424.87C210.022 424.108 209.938 420.891 206.128 423.261 203.758 428.171 213.239 433.843 216.794 430.203 219.249 427.663 216.71 414.965 216.71 410.902 216.71 404.892 218.318 399.051 217.556 393.548 211.292 391.517 211.292 395.919 211.207 406.077 211.207 409.378 211.377 412.764 211.631 415.812 211.969 419.621 213.07 420.891 213.07 424.87Z" fill="#445fd2" fill-rule="evenodd" transform="matrix(1.00203 0 0 1 46.6234 8.19687)"/><path d="M852.194 375.687C857.358 379.327 857.358 371.031 857.358 393.294 857.358 397.188 857.358 401.167 857.443 405.061 857.443 410.14 857.443 411.833 852.364 411.918 854.141 413.272 857.358 412.764 859.475 412.764 862.268 412.764 864.977 412.68 867.686 412.68 867.601 412.595 867.347 412.341 867.263 412.426L863.453 410.733C862.353 409.463 862.522 407.516 862.522 405.569L862.522 382.12C862.691 374.502 864.723 377.972 867.855 375.687 866.416 375.094 853.718 375.094 852.194 375.687Z" fill="#040404" fill-rule="evenodd" transform="matrix(1.00203 0 0 1 46.6234 8.19687)"/><path d="M677.811 375.687C682.975 379.411 683.059 370.862 683.059 393.887 683.059 416.743 683.313 409.209 677.726 412.426 679.419 413.103 691.524 413.272 693.471 412.511L691.524 411.833C686.615 410.31 688.223 406.077 688.223 394.395 688.223 385.422 686.615 377.718 691.101 376.449 691.609 376.279 691.863 376.279 692.371 376.11 693.556 375.771 692.794 376.195 693.471 375.687 692.032 375.094 679.335 375.01 677.811 375.687Z" fill="#040404" fill-rule="evenodd" transform="matrix(1.00203 0 0 1 46.6234 8.19687)"/><path d="M516.21 375.687C521.289 379.327 521.373 370.777 521.373 393.887 521.373 397.781 521.458 401.675 521.458 405.569 521.373 413.526 519.765 410.31 516.125 412.426 517.818 413.103 529.923 413.272 531.786 412.511 531.701 412.426 531.532 412.257 531.447 412.341 531.447 412.426 531.193 412.257 531.108 412.172 530.6 412.003 530.516 412.003 529.923 411.833 528.992 411.579 528.484 411.579 527.722 410.902 526.453 409.802 526.537 408.024 526.537 406.162 526.537 402.268 525.86 379.496 527.384 377.549 527.976 376.787 528.569 376.703 529.5 376.449 531.278 375.856 530.431 376.703 531.87 375.687 530.431 375.094 517.733 375.01 516.21 375.687Z" fill="#040404" fill-rule="evenodd" transform="matrix(1.00203 0 0 1 46.6234 8.19687)"/><path d="M130.872 307.542C134.343 304.494 131.296 286.125 130.872 281.807 130.618 278.506 131.042 275.289 130.788 272.326 124.693 273.681 121.476 282.485 123.338 289.426 124.185 292.558 125.709 295.69 126.894 298.653 128.079 301.277 129.095 305.764 130.872 307.542Z" fill="#445fd2" fill-rule="evenodd" transform="matrix(1.00203 0 0 1 46.6234 8.19687)"/><path d="M297.807 307.118C298.399 306.78 298.653 306.949 299.415 305.171 299.584 304.664 299.923 303.394 300.092 302.717 302.632 295.182 309.15 286.379 304.917 278.421 303.648 275.966 301.193 272.496 298.23 272.072 297.976 282.485 296.96 289.68 296.706 298.399 296.622 301.108 296.283 304.917 297.807 307.118Z" fill="#445fd2" fill-rule="evenodd" transform="matrix(1.00203 0 0 1 46.6234 8.19687)"/><path d="M69.3302 284.262C72.3777 285.955 91.5938 296.029 95.1492 296.029 96.165 294.505 97.1808 293.405 97.0962 290.865 95.0645 288.918 74.0707 278.76 71.7005 278.591 70.0074 280.453 69.5842 281.469 69.3302 284.262Z" fill="#445fd2" fill-rule="evenodd" transform="matrix(1.00203 0 0 1 46.6234 8.19687)"/><path d="M132.565 199.187C132.989 201.388 149.75 220.519 151.189 220.519 153.136 219.927 154.067 218.657 155.591 217.556 154.914 214.086 143.486 202.573 139.592 197.917 138.66 196.732 138.068 195.377 135.952 196.055 134.936 196.478 133.073 198.34 132.565 199.187Z" fill="#445fd2" fill-rule="evenodd" transform="matrix(1.00203 0 0 1 46.6234 8.19687)"/><path d="M250.401 196.986C252.602 194.531 255.988 188.182 257.851 185.219 259.459 182.764 264.284 175.907 264.284 172.521 262.761 171.252 262.083 170.574 259.459 170.236 257.004 172.267 252.856 180.225 250.655 183.949 248.37 187.589 240.751 196.055 250.401 196.986Z" fill="#445fd2" fill-rule="evenodd" transform="matrix(1.00203 0 0 1 46.6234 8.19687)"/><path d="M1003.98 391.432 993.479 391.432 993.394 377.888C997.712 377.38 1004.48 377.211 1008.29 378.819 1007.62 377.972 1008.29 378.311 1007.45 377.718 1005.16 376.364 995.087 376.703 992.971 377.38 992.463 380.258 992.125 389.4 993.141 391.855 994.749 392.109 1002.54 392.617 1003.98 391.432Z" fill="#445fd2" fill-rule="evenodd" transform="matrix(1.00203 0 0 1 46.6234 8.19687)"/><path d="M218.488 478.878C216.541 480.402 217.726 479.724 216.541 481.587 213.239 486.92 210.953 479.386 209.853 478.878 209.345 480.571 209.768 482.687 210.784 484.126 211.969 485.819 218.995 488.19 218.488 478.878Z" fill="#E0DFEB" fill-rule="evenodd" transform="matrix(1.00203 0 0 1 46.6234 8.19687)"/></g></svg>